<svg xmlns="http://www.w3.org/2000/svg" version="1.1" xmlns:xlink="http://www.w3.org/1999/xlink" xmlns:svgjs="http://svgjs.dev/svgjs" viewBox="0 0 800 800"><defs><linearGradient x1="50%" y1="0%" x2="50%" y2="100%" id="nnneon-grad"><stop stop-color="hsl(180, 69%, 40%)" stop-opacity="1" offset="0%"></stop><stop stop-color="hsl(180, 69%, 60%)" stop-opacity="1" offset="100%"></stop></linearGradient><filter id="nnneon-filter" x="-100%" y="-100%" width="400%" height="400%" filterUnits="objectBoundingBox" primitiveUnits="userSpaceOnUse" color-interpolation-filters="sRGB">
	<feGaussianBlur stdDeviation="9 7" x="0%" y="0%" width="100%" height="100%" in="SourceGraphic" edgeMode="none" result="blur"></feGaussianBlur></filter><filter id="nnneon-filter2" x="-100%" y="-100%" width="400%" height="400%" filterUnits="objectBoundingBox" primitiveUnits="userSpaceOnUse" color-interpolation-filters="sRGB">
	<feGaussianBlur stdDeviation="7 17" x="0%" y="0%" width="100%" height="100%" in="SourceGraphic" edgeMode="none" result="blur"></feGaussianBlur></filter></defs><g stroke-width="16" stroke="url(#nnneon-grad)" fill="none"><path d="M400 226.795166015625L550.0000095849032 313.3975856398686V486.60242488835587L400 573.2048445125995L249.99999041509682 486.60242488835587V313.3975856398686L400 226.795166015625Z " filter="url(#nnneon-filter)"></path><path d="M407 226.795166015625L557.0000095849032 313.3975856398686V486.60242488835587L407 573.2048445125995L256.9999904150968 486.60242488835587V313.3975856398686L407 226.795166015625Z " filter="url(#nnneon-filter2)" opacity="0.25"></path><path d="M393 226.795166015625L543.0000095849032 313.3975856398686V486.60242488835587L393 573.2048445125995L242.99999041509682 486.60242488835587V313.3975856398686L393 226.795166015625Z " filter="url(#nnneon-filter2)" opacity="0.25"></path><path d="M400 226.795166015625L550.0000095849032 313.3975856398686V486.60242488835587L400 573.2048445125995L249.99999041509682 486.60242488835587V313.3975856398686L400 226.795166015625Z "></path></g></svg>